<?xml version="1.0" standalone="no"?>
<!DOCTYPE svg PUBLIC "-//W3C//DTD SVG 20010904//EN"
 "http://www.w3.org/TR/2001/REC-SVG-20010904/DTD/svg10.dtd">
<svg version="1.0" xmlns="http://www.w3.org/2000/svg"
 width="1024.000000pt" height="1024.000000pt" viewBox="0 0 1024.000000 1024.000000"
 preserveAspectRatio="xMidYMid meet">

<g transform="translate(0.000000,1024.000000) scale(0.100000,-0.100000)"
fill="#000000" stroke="none">
<path d="M7165 9875 c-142 -32 -231 -92 -421 -288 -346 -355 -615 -708 -869
-1142 -74 -125 -342 -640 -356 -683 -3 -10 -29 -8 -121 8 -330 56 -750 47
-1123 -25 -44 -8 -83 -15 -87 -15 -3 0 -17 17 -29 38 -112 184 -348 522 -486
694 -392 490 -726 738 -992 738 -177 0 -355 -109 -439 -268 -160 -302 -184
-837 -67 -1512 62 -356 166 -777 236 -955 68 -175 173 -327 273 -396 l35 -23
-6 -126 c-6 -112 -8 -127 -27 -140 -12 -8 -60 -50 -109 -93 -224 -201 -443
-531 -512 -770 -78 -275 -39 -563 106 -772 85 -124 187 -200 338 -253 70 -24
89 -26 234 -27 135 0 156 -2 151 -15 -3 -8 -10 -64 -17 -123 -33 -320 81 -609
316 -803 41 -33 56 -52 52 -63 -4 -9 -16 -56 -27 -106 -30 -136 -22 -307 20
-432 54 -160 142 -307 287 -483 409 -495 1017 -910 1680 -1148 509 -182 1108
-297 1664 -318 200 -8 185 -14 288 107 205 242 343 525 418 855 76 341 85 779
24 1224 -33 236 -104 576 -145 692 -8 23 -13 42 -11 44 1 2 32 -17 67 -42 78
-55 300 -165 390 -194 35 -11 88 -23 117 -27 50 -5 54 -4 86 28 88 88 133 372
93 581 -50 261 -218 476 -459 588 -95 45 -171 61 -303 67 l-121 6 -12 81 c-17
114 -62 289 -134 516 -67 214 -70 233 -48 400 16 121 10 274 -15 365 -8 33
-31 95 -51 139 l-35 79 33 26 c234 181 541 475 645 616 66 89 105 170 130 266
14 55 15 89 8 239 -18 360 -12 452 66 1025 47 344 62 523 62 750 0 336 -31
513 -122 700 -79 163 -173 262 -305 325 -120 57 -246 73 -370 45z m216 -231
c194 -56 314 -260 355 -609 28 -232 12 -477 -71 -1065 -57 -403 -69 -541 -61
-715 3 -77 8 -180 10 -230 l4 -90 -8 75 c-18 161 -23 386 -11 517 6 72 31 272
56 445 68 487 78 590 79 828 0 242 -14 351 -65 505 -37 109 -68 164 -131 231
-71 75 -150 109 -253 109 -145 -1 -210 -45 -443 -297 -317 -344 -580 -701
-801 -1088 -66 -115 -291 -552 -291 -565 0 -3 5 -5 10 -5 6 0 59 -24 118 -52
59 -29 110 -54 113 -56 4 -1 23 48 44 110 183 547 569 1172 975 1580 171 172
251 208 349 159 100 -51 159 -172 186 -378 31 -238 14 -480 -74 -1064 -22
-145 -45 -309 -52 -364 -16 -135 -16 -439 0 -553 7 -51 10 -104 7 -117 -10
-38 -109 -148 -199 -220 -77 -62 -240 -167 -333 -213 l-41 -21 19 -58 c11 -31
35 -111 54 -177 19 -66 36 -121 37 -123 8 -7 230 189 348 306 197 197 284 320
299 426 7 49 8 49 9 10 1 -53 -40 -139 -117 -240 -72 -96 -296 -317 -442 -438
l-105 -87 -9 33 c-59 209 -82 285 -120 381 -44 113 -100 228 -156 323 l-31 52
45 19 c55 25 129 92 150 136 27 58 21 103 -19 143 -32 32 -40 35 -78 31 -23
-3 -77 -19 -120 -37 -77 -30 -117 -39 -117 -23 0 24 54 223 85 310 70 202 143
357 360 766 73 137 76 172 23 222 -74 67 -117 42 -220 -132 -164 -277 -351
-689 -414 -916 l-27 -96 -81 68 c-115 96 -281 201 -396 250 l-98 42 111 217
c203 399 373 677 591 966 241 320 582 689 683 739 95 47 174 56 264 30z
m-4546 -713 c229 -108 565 -448 864 -874 45 -65 123 -180 172 -255 l90 -137
-33 -14 c-140 -61 -250 -118 -320 -166 -44 -31 -82 -54 -83 -53 -1 2 -8 14
-15 28 -19 37 -186 286 -238 355 -75 98 -154 187 -187 206 -55 34 -113 22
-140 -31 -27 -52 -19 -72 70 -184 128 -162 318 -440 341 -500 4 -9 -19 -44
-58 -88 -80 -92 -187 -242 -269 -378 -63 -105 -180 -343 -214 -433 -10 -26
-20 -46 -22 -43 -2 2 9 36 25 76 l28 72 -42 86 c-145 296 -295 982 -319 1462
-12 238 24 480 87 574 36 56 102 91 150 81 110 -24 264 -146 473 -375 199
-219 368 -429 519 -650 33 -47 60 -86 61 -88 5 -6 165 62 165 71 0 14 -233
359 -340 502 -169 226 -270 341 -458 518 -240 225 -423 309 -555 254 -54 -23
-133 -102 -162 -162 -63 -135 -95 -331 -95 -600 0 -228 16 -389 70 -702 60
-351 137 -676 210 -887 11 -33 18 -61 16 -64 -6 -5 -74 212 -110 348 -67 254
-154 723 -181 978 -18 167 -20 470 -5 592 32 251 94 401 198 472 97 67 178 69
307 9z m2346 -1361 c578 -58 919 -255 1219 -705 70 -104 166 -293 218 -428 49
-125 95 -282 89 -300 -2 -6 -12 22 -22 63 -44 184 -174 478 -289 655 -233 358
-533 574 -911 657 -310 67 -644 75 -1030 22 -421 -58 -671 -164 -890 -375
l-80 -78 50 -1 c91 -1 185 -63 243 -160 11 -19 39 -82 62 -139 70 -177 101
-227 169 -268 88 -55 153 -24 346 166 173 170 317 281 448 346 155 76 308 101
427 71 112 -29 150 -57 390 -289 274 -264 416 -382 608 -500 171 -106 353
-182 450 -189 l42 -3 10 -52 c5 -29 15 -79 21 -110 6 -31 31 -95 56 -142 108
-204 124 -328 78 -596 -29 -166 -29 -251 -3 -311 7 -16 34 -67 60 -114 103
-186 147 -361 155 -625 6 -201 -8 -337 -53 -505 -148 -552 -577 -1047 -1154
-1334 -390 -193 -803 -257 -1179 -180 -171 35 -373 117 -506 207 -64 43 -186
160 -225 216 -22 31 -22 34 -4 27 10 -5 98 -10 194 -13 329 -10 551 48 789
207 95 64 197 165 207 206 8 32 -23 78 -55 82 -13 2 -47 -13 -84 -37 -184
-119 -445 -208 -687 -232 -317 -32 -742 76 -967 245 -229 172 -324 414 -298
758 l7 96 59 22 c32 12 79 35 105 51 l46 30 -8 -68 c-12 -115 -8 -313 9 -388
20 -93 45 -148 100 -221 136 -180 469 -295 812 -281 224 9 393 54 610 162 546
271 900 847 951 1549 7 95 7 98 22 70 39 -77 93 -96 131 -48 41 52 19 185 -44
279 -110 162 -351 226 -482 128 -55 -41 -54 -124 2 -156 11 -7 47 -12 80 -12
75 0 75 3 -11 -170 -215 -431 -569 -711 -1029 -811 -121 -27 -409 -24 -580 5
-243 41 -407 86 -464 129 -28 21 -69 88 -59 97 2 1 50 12 108 23 334 67 600
284 666 544 62 241 -154 455 -556 550 -125 29 -413 36 -552 13 -251 -41 -466
-156 -548 -292 -33 -54 -35 -62 -34 -143 1 -132 47 -231 175 -374 125 -140
264 -239 402 -287 81 -28 82 -29 100 -76 10 -26 23 -52 28 -58 21 -21 4 -34
-88 -65 -135 -45 -290 -53 -408 -21 -363 100 -492 515 -287 926 91 184 288
430 424 530 69 52 137 71 308 85 298 26 536 109 592 206 68 118 31 434 -70
590 -96 148 -253 215 -394 167 -32 -11 -58 -17 -58 -14 0 15 151 269 207 348
80 113 257 293 354 360 233 160 503 239 964 282 132 12 397 13 516 1z m-2461
-1199 c41 -58 60 -69 60 -34 0 9 2 14 5 11 9 -9 -6 -58 -16 -52 -27 16 -123
164 -133 204 -4 14 4 4 17 -21 13 -26 43 -74 67 -108z m623 48 c15 -7 27 -15
27 -18 0 -4 -16 -15 -36 -26 -49 -26 -102 -88 -130 -151 -45 -102 -49 -261 -9
-373 8 -24 14 -45 12 -47 -1 -1 -48 -6 -104 -10 l-101 -7 -17 54 c-25 81 -30
230 -11 312 43 183 155 294 286 284 30 -3 67 -11 83 -18z m-38 -1258 c133 -19
207 -55 213 -103 13 -107 -394 -153 -649 -72 -43 14 -91 35 -105 48 l-27 22
22 21 c75 69 353 112 546 84z m4245 -1096 c148 -38 287 -141 361 -266 41 -69
79 -173 78 -212 0 -12 -9 10 -19 50 -57 219 -220 373 -447 423 -48 11 -112 20
-140 20 -29 0 -53 4 -53 8 0 12 146 -3 220 -23z m-223 -82 c-2 -16 -4 -3 -4
27 0 30 2 43 4 28 2 -16 2 -40 0 -55z m-10 -80 c-3 -10 -5 -2 -5 17 0 19 2 27
5 18 2 -10 2 -26 0 -35z m-11 -74 l-7 -51 58 -66 c98 -111 225 -236 278 -273
27 -19 95 -57 150 -86 55 -29 96 -52 91 -53 -5 0 -58 26 -118 57 -129 67 -212
135 -362 297 -105 114 -108 120 -102 155 3 20 6 44 6 54 0 9 3 17 6 17 4 0 4
-23 0 -51z m691 -411 c-2 -29 -3 -8 -3 47 0 55 1 79 3 53 2 -26 2 -71 0 -100z
m-752 -218 c47 -167 90 -358 82 -366 -2 -2 -10 24 -16 58 -14 75 -70 294 -101
398 -21 70 -23 73 -37 55 -16 -20 -16 -20 -8 0 4 11 10 29 13 39 5 18 6 17 14
-5 5 -13 29 -94 53 -179z m742 128 c-3 -7 -5 -2 -5 12 0 14 2 19 5 13 2 -7 2
-19 0 -25z m-836 -35 c-12 -20 -14 -14 -5 12 4 9 9 14 11 11 3 -2 0 -13 -6
-23z m829 -3 c0 -24 -22 -25 -65 -4 -16 8 -22 12 -12 9 61 -17 67 -17 67 -1 0
9 2 16 5 16 3 0 5 -9 5 -20z m-855 -59 c-8 -17 -18 -31 -21 -31 -3 0 -4 3 -2
8 21 43 32 61 35 58 3 -2 -3 -18 -12 -35z m-66 -122 c-217 -384 -512 -673
-937 -917 -118 -68 -309 -158 -317 -150 -3 2 30 19 73 37 99 42 290 147 412
226 312 202 580 487 760 807 24 43 45 76 47 74 2 -2 -15 -36 -38 -77z m289
-369 c0 -22 -1 -22 -8 5 -4 17 -8 41 -8 55 0 22 1 22 8 -5 4 -16 8 -41 8 -55z
m-3913 -25 c-7 -33 -14 -49 -14 -35 -1 26 18 105 24 98 1 -1 -3 -30 -10 -63z
m130 11 c44 -20 73 -36 65 -36 -8 1 -51 19 -95 40 -94 47 -82 45 30 -4z m3792
-53 c-3 -10 -5 -4 -5 12 0 17 2 24 5 18 2 -7 2 -21 0 -30z m-3913 -258 c54
-185 210 -409 456 -655 166 -166 306 -279 516 -418 207 -137 208 -138 149
-106 -151 83 -404 268 -567 418 -318 290 -533 593 -577 814 -6 29 -10 83 -9
120 1 66 1 65 8 -23 4 -49 15 -117 24 -150z m3553 -20 c61 -69 56 -232 -9
-302 -29 -31 -79 -46 -111 -34 -54 21 -83 107 -66 196 27 146 119 215 186 140z
m-364 -175 c103 -90 97 -280 -8 -280 -43 0 -73 25 -101 84 -34 73 -34 167 1
201 32 33 67 31 108 -5z m154 -27 c-3 -10 -5 -4 -5 12 0 17 2 24 5 18 2 -7 2
-21 0 -30z m441 -19 c32 -22 30 -78 -7 -136 -16 -26 -39 -51 -50 -57 -84 -45
-134 50 -72 136 51 71 87 87 129 57z m-1438 -138 c0 -2 -7 -7 -16 -10 -8 -3
-12 -2 -9 4 6 10 25 14 25 6z m1216 -119 c86 -44 156 -145 170 -249 13 -94
-77 -178 -193 -178 -30 0 -43 -9 -91 -61 -145 -157 -264 -126 -302 80 -29 158
78 379 206 427 56 21 148 13 210 -19z m-541 -82 c43 -25 75 -74 75 -114 0 -27
-42 -71 -67 -71 -29 1 -96 35 -121 62 -12 14 -25 41 -29 61 -4 29 -1 40 20 61
33 33 68 33 122 1z m-1482 -806 c42 -17 76 -34 74 -36 -11 -10 -403 180 -432
208 -5 6 55 -23 135 -64 80 -42 180 -90 223 -108z m142 -60 c22 -10 29 -16 15
-13 -28 7 -80 33 -65 33 6 0 28 -9 50 -20z m105 -41 c10 -6 7 -7 -10 -2 -14 3
-32 11 -40 16 -10 6 -7 7 10 2 14 -3 32 -11 40 -16z m100 -35 c30 -11 31 -12
6 -8 -16 4 -43 13 -60 20 -23 11 -25 13 -6 8 14 -3 41 -12 60 -20z"/>
<path d="M6927 8183 c-17 -58 -30 -195 -30 -308 1 -160 18 -219 121 -410 89
-163 106 -220 100 -334 -3 -71 -10 -99 -36 -155 -39 -84 -98 -168 -183 -261
-79 -86 -104 -120 -60 -80 52 47 165 184 210 255 62 95 84 180 79 296 l-4 94
-96 193 c-53 105 -102 217 -109 247 -17 72 -14 272 5 385 14 82 15 122 3 78z"/>
<path d="M6891 8123 c-10 -26 -10 -27 4 -9 8 11 15 23 15 28 0 15 -7 8 -19
-19z"/>
<path d="M6551 7324 c0 -11 3 -14 6 -6 3 7 2 16 -1 19 -3 4 -6 -2 -5 -13z"/>
<path d="M6781 6980 c-29 -26 -67 -54 -85 -61 -17 -7 -33 -14 -35 -15 -2 -2
13 -29 32 -61 19 -32 51 -91 71 -130 20 -40 38 -73 41 -73 5 0 -76 172 -85
180 -3 3 -16 22 -28 43 -21 36 -18 49 6 25 9 -9 15 -9 25 1 10 10 9 11 -6 5
-12 -4 -16 -2 -12 8 8 20 55 11 56 -11 0 -13 1 -13 6 -1 3 8 12 21 21 28 12 9
13 15 4 24 -7 7 -12 17 -12 23 0 5 5 3 10 -5 8 -13 10 -12 10 4 0 11 10 30 22
43 35 38 17 25 -41 -27z m-11 -44 c0 -11 -19 -15 -25 -6 -3 5 1 10 9 10 9 0
16 -2 16 -4z"/>
<path d="M2951 7838 c-2 -45 48 -591 59 -649 14 -67 59 -211 71 -224 13 -13
11 -6 -12 54 -40 107 -59 220 -84 511 -27 311 -31 353 -34 308z"/>
<path d="M5179 6700 c-196 -35 -352 -213 -433 -493 -57 -196 -57 -429 1 -489
32 -33 105 -62 228 -90 71 -17 124 -21 250 -21 187 0 271 15 387 70 142 66
173 128 171 348 -1 196 -45 333 -156 480 -111 148 -286 224 -448 195z m176
-185 c52 -25 85 -48 85 -59 0 -3 -8 -6 -17 -6 -32 0 -119 -58 -166 -110 -114
-127 -137 -356 -52 -532 l23 -48 -36 0 c-45 0 -220 26 -272 40 -37 10 -38 12
-42 63 -6 76 8 211 32 301 74 289 264 439 445 351z"/>
</g>
</svg>
